<svg width="165" height="18" viewBox="0 0 165 18" fill="none" xmlns="http://www.w3.org/2000/svg">
  <path d="M5.95952 17.288C10.2795 17.288 11.6475 14.816 11.6475 12.752C11.6475 6.77603 2.04752 9.03203 2.04752 4.92803C2.04752 3.20003 3.65552 1.97603 5.79152 1.97603C7.59152 1.97603 9.22352 2.60003 10.3755 3.99203L11.2875 2.98403C10.0635 1.56803 8.23952 0.728027 5.86352 0.728027C2.95952 0.728027 0.607516 2.38403 0.607516 5.00003C0.607516 10.592 10.2075 8.14403 10.2075 12.848C10.2075 14.216 9.27152 16.04 6.00752 16.04C3.70352 16.04 2.02352 14.888 0.991516 13.712L0.103516 14.744C1.32752 16.208 3.31952 17.288 5.95952 17.288Z" fill="black"/>
  <path d="M27.8248 17V0.992027H26.4568V8.14403H16.3048V0.992027H14.9368V17H16.3048V9.39203H26.4568V17H27.8248Z" fill="black"/>
  <path d="M38.9878 17.288C43.6678 17.288 46.7638 13.688 46.7638 9.00803C46.7638 4.32803 43.6678 0.728027 38.9878 0.728027C34.2838 0.728027 31.2118 4.32803 31.2118 9.00803C31.2118 13.688 34.2838 17.288 38.9878 17.288ZM38.9878 16.04C35.1238 16.04 32.6518 13.04 32.6518 9.00803C32.6518 4.95203 35.1238 1.97603 38.9878 1.97603C42.8278 1.97603 45.3238 4.95203 45.3238 9.00803C45.3238 13.04 42.8278 16.04 38.9878 16.04Z" fill="black"/>
  <path d="M51.508 17V10.352H56.14C59.188 10.352 60.964 8.19203 60.964 5.67203C60.964 3.15203 59.212 0.992027 56.14 0.992027H50.14V17H51.508ZM55.996 9.10403H51.508V2.24003H55.996C58.132 2.24003 59.524 3.65603 59.524 5.67203C59.524 7.66403 58.132 9.10403 55.996 9.10403Z" fill="black"/>
  <path d="M65.2189 17V9.41603H73.8349V8.16803H65.2189V2.24003H74.0029V0.992027H63.8509V17H65.2189Z" fill="black"/>
  <path d="M85.6667 17V15.752H77.9147V0.992027H76.5227V17H85.6667Z" fill="black"/>
  <path d="M94.7691 17.288C99.4491 17.288 102.545 13.688 102.545 9.00803C102.545 4.32803 99.4491 0.728027 94.7691 0.728027C90.0651 0.728027 86.9931 4.32803 86.9931 9.00803C86.9931 13.688 90.0651 17.288 94.7691 17.288ZM94.7691 16.04C90.9051 16.04 88.4331 13.04 88.4331 9.00803C88.4331 4.95203 90.9051 1.97603 94.7691 1.97603C98.6091 1.97603 101.105 4.95203 101.105 9.00803C101.105 13.04 98.6091 16.04 94.7691 16.04Z" fill="black"/>
  <path d="M113.097 17.288C117.777 17.288 120.873 13.688 120.873 9.00803C120.873 4.32803 117.777 0.728027 113.097 0.728027C108.393 0.728027 105.321 4.32803 105.321 9.00803C105.321 13.688 108.393 17.288 113.097 17.288ZM113.097 16.04C109.233 16.04 106.761 13.04 106.761 9.00803C106.761 4.95203 109.233 1.97603 113.097 1.97603C116.937 1.97603 119.433 4.95203 119.433 9.00803C119.433 13.04 116.937 16.04 113.097 16.04Z" fill="black"/>
  <path d="M135.289 17L130.657 10.28C133.057 10.184 135.097 8.57603 135.097 5.67203C135.097 2.74403 132.985 0.992027 130.225 0.992027H124.249V17H125.617V10.376H129.145L133.633 17H135.289ZM130.105 9.12803H125.617V2.24003H130.105C132.241 2.24003 133.657 3.65603 133.657 5.67203C133.657 7.68803 132.241 9.12803 130.105 9.12803Z" fill="black"/>
  <path d="M139.147 17.216C139.723 17.216 140.203 16.736 140.203 16.16C140.203 15.608 139.723 15.128 139.147 15.128C138.571 15.128 138.067 15.608 138.067 16.16C138.067 16.736 138.571 17.216 139.147 17.216Z" fill="black"/>
  <path d="M145.117 17V0.992027H143.749V17H145.117Z" fill="black"/>
  <path d="M156.269 17.288C160.949 17.288 164.045 13.688 164.045 9.00803C164.045 4.32803 160.949 0.728027 156.269 0.728027C151.565 0.728027 148.493 4.32803 148.493 9.00803C148.493 13.688 151.565 17.288 156.269 17.288ZM156.269 16.04C152.405 16.04 149.933 13.04 149.933 9.00803C149.933 4.95203 152.405 1.97603 156.269 1.97603C160.109 1.97603 162.605 4.95203 162.605 9.00803C162.605 13.04 160.109 16.04 156.269 16.04Z" fill="black"/>
</svg>
