<svg xmlns="http://www.w3.org/2000/svg" width="14.312" height="17.553" viewBox="0 0 14.312 17.553"><path d="M14.021,17.574H6.167a1.648,1.648,0,0,1-1.646-1.646V5.067a.549.549,0,1,1,1.1,0V15.929a.549.549,0,0,0,.549.549h7.854a.549.549,0,0,0,.549-.549V5.067a.549.549,0,1,1,1.1,0V15.929A1.647,1.647,0,0,1,14.021,17.574Zm-1.516-2.411a.548.548,0,0,1-.549-.549V5.067a.549.549,0,1,1,1.1,0v9.547A.548.548,0,0,1,12.505,15.163Zm-2.411,0a.548.548,0,0,1-.549-.549V5.067a.549.549,0,1,1,1.1,0v9.547A.548.548,0,0,1,10.094,15.163Zm-2.412,0a.548.548,0,0,1-.549-.549V5.067a.549.549,0,1,1,1.1,0v9.547A.548.548,0,0,1,7.682,15.163ZM16.676,3.455H3.462a.549.549,0,1,1,0-1.1H6.215A1.886,1.886,0,0,1,7.328.57,5.225,5.225,0,0,1,9.54.021h1.107A5.227,5.227,0,0,1,12.859.57a1.886,1.886,0,0,1,1.113,1.788h2.7a.549.549,0,1,1,0,1.1Zm-9.363-1.1h5.561a.836.836,0,0,0-.555-.833,4.159,4.159,0,0,0-1.672-.406H9.54a4.164,4.164,0,0,0-1.672.407.835.835,0,0,0-.554.833Z" transform="translate(-2.913 -0.021)"/></svg>