<svg xmlns="http://www.w3.org/2000/svg" width="104.046" height="35.443" viewBox="0 0 104.046 35.443"><defs><style>.a{fill:#b60025;}.a,.b,.d{fill-rule:evenodd;}.b,.c{fill:#373839;}.d{fill:#b2b4b5;}</style></defs><g transform="translate(-66.027 -341.114)"><g transform="translate(104.272 352.076)"><path class="a" d="M232.487,388.825v13.321h6V397.31h3.11v4.836h6.177V388.825h-6.177v4.815h-3.11v-4.815Z" transform="translate(-232.487 -388.825)"/><path class="a" d="M307.569,388.825h11.4v3.316h-5.309v1.813h5.309v3.14h-5.309v1.813h5.309v3.239h-11.4Z" transform="translate(-290.319 -388.825)"/><path class="a" d="M365.52,388.825h5.733l2.553,2.844,2.5-2.844h5.733v13.321h-5.9v-6.954l-2.418,2.652-2.3-2.652v6.954h-5.9Z" transform="translate(-334.955 -388.825)"/><path class="a" d="M448.256,397.094H450.6l-1.12-3.453Zm-7.837,5.053,4.664-13.321h8.741l4.623,13.321h-6.053l-.854-2.048h-4.185l-.82,2.048Z" transform="translate(-392.646 -388.825)"/></g><g transform="translate(104.141 367.839)"><g transform="translate(0 5.723)"><path class="b" d="M231.918,484.355l.38-.031a.788.788,0,0,0,.125.358.7.7,0,0,0,.307.225,1.219,1.219,0,0,0,.467.085,1.172,1.172,0,0,0,.407-.065.562.562,0,0,0,.261-.178.4.4,0,0,0,.087-.249.362.362,0,0,0-.083-.237.617.617,0,0,0-.274-.172q-.123-.045-.542-.14a2.9,2.9,0,0,1-.587-.182.825.825,0,0,1-.326-.269.647.647,0,0,1-.106-.362.707.707,0,0,1,.131-.409.8.8,0,0,1,.382-.291,1.516,1.516,0,0,1,.558-.1,1.571,1.571,0,0,1,.6.1.827.827,0,0,1,.548.761l-.386.028a.583.583,0,0,0-.212-.415.845.845,0,0,0-.529-.14.884.884,0,0,0-.533.128.375.375,0,0,0-.166.306.322.322,0,0,0,.118.257,1.66,1.66,0,0,0,.606.208,4.123,4.123,0,0,1,.674.183.912.912,0,0,1,.392.3.691.691,0,0,1,.127.411.767.767,0,0,1-.139.437.913.913,0,0,1-.4.318,1.455,1.455,0,0,1-.585.113,1.834,1.834,0,0,1-.693-.115.968.968,0,0,1-.438-.344A.955.955,0,0,1,231.918,484.355Z" transform="translate(-231.918 -482.339)"/><path class="b" d="M254.033,484.27l.4.1a1.221,1.221,0,0,1-1.26.968,1.514,1.514,0,0,1-.8-.19,1.221,1.221,0,0,1-.469-.553,1.9,1.9,0,0,1-.16-.777,1.643,1.643,0,0,1,.181-.789,1.213,1.213,0,0,1,.517-.512,1.571,1.571,0,0,1,.739-.176,1.292,1.292,0,0,1,.768.221,1.15,1.15,0,0,1,.434.623l-.4.089a.894.894,0,0,0-.307-.46.849.849,0,0,0-.507-.144,1.024,1.024,0,0,0-.587.16.851.851,0,0,0-.33.431,1.647,1.647,0,0,0-.1.555,1.714,1.714,0,0,0,.112.646.817.817,0,0,0,.353.411,1.024,1.024,0,0,0,.517.136.893.893,0,0,0,.573-.186A.941.941,0,0,0,254.033,484.27Z" transform="translate(-247.19 -482.339)"/><path class="b" d="M273.064,485.452v-2.9h.4v1.19h1.581v-1.19h.4v2.9h-.4v-1.366h-1.581v1.366Z" transform="translate(-263.611 -482.505)"/><path class="b" d="M293.75,485.452v-2.9h.413l1.6,2.275v-2.275h.386v2.9h-.413l-1.6-2.277v2.277Z" transform="translate(-279.544 -482.505)"/><path class="b" d="M314.563,485.452v-2.9h2.2v.342h-1.8v.888h1.683v.34h-1.683v.986h1.868v.342Z" transform="translate(-295.575 -482.505)"/><rect class="c" width="0.403" height="2.897" transform="translate(23.583 0.05)"/><path class="b" d="M346.8,485.452v-2.9h1.048a2.658,2.658,0,0,1,.542.041,1.05,1.05,0,0,1,.446.207,1.177,1.177,0,0,1,.359.5,1.848,1.848,0,0,1,.12.688,1.932,1.932,0,0,1-.081.585,1.408,1.408,0,0,1-.207.423,1.09,1.09,0,0,1-.278.263,1.152,1.152,0,0,1-.363.144,2.139,2.139,0,0,1-.488.05Zm.4-.342h.65a1.628,1.628,0,0,0,.471-.054.676.676,0,0,0,.274-.15.9.9,0,0,0,.222-.366,1.7,1.7,0,0,0,.081-.559,1.282,1.282,0,0,0-.158-.7.771.771,0,0,0-.38-.328,1.645,1.645,0,0,0-.521-.06h-.639Z" transform="translate(-320.408 -482.505)"/><path class="b" d="M366.965,484.355l.38-.031a.791.791,0,0,0,.125.358.7.7,0,0,0,.307.225,1.219,1.219,0,0,0,.467.085,1.173,1.173,0,0,0,.407-.065.564.564,0,0,0,.261-.178A.4.4,0,0,0,369,484.5a.363.363,0,0,0-.083-.237.617.617,0,0,0-.274-.172q-.123-.045-.542-.14a2.9,2.9,0,0,1-.587-.182.822.822,0,0,1-.326-.269.646.646,0,0,1-.106-.362.706.706,0,0,1,.131-.409.8.8,0,0,1,.382-.291,1.516,1.516,0,0,1,.558-.1,1.572,1.572,0,0,1,.6.1.827.827,0,0,1,.547.761l-.386.028a.582.582,0,0,0-.212-.415.845.845,0,0,0-.529-.14.884.884,0,0,0-.533.128.375.375,0,0,0-.166.306.322.322,0,0,0,.118.257,1.66,1.66,0,0,0,.606.208,4.121,4.121,0,0,1,.675.183.915.915,0,0,1,.392.3.692.692,0,0,1,.127.411.765.765,0,0,1-.139.437.915.915,0,0,1-.4.318,1.453,1.453,0,0,1-.585.113,1.835,1.835,0,0,1-.693-.115.968.968,0,0,1-.438-.344A.953.953,0,0,1,366.965,484.355Z" transform="translate(-335.937 -482.339)"/><path class="b" d="M387.1,485.452v-1.227l-1.172-1.67h.49l.6.873q.166.245.309.49.136-.227.332-.512l.589-.852h.469l-1.214,1.67v1.227Z" transform="translate(-350.542 -482.505)"/><path class="b" d="M406.439,484.355l.38-.031a.788.788,0,0,0,.125.358.7.7,0,0,0,.307.225,1.22,1.22,0,0,0,.467.085,1.17,1.17,0,0,0,.407-.065.562.562,0,0,0,.262-.178.4.4,0,0,0,.087-.249.362.362,0,0,0-.083-.237.617.617,0,0,0-.274-.172q-.123-.045-.542-.14a2.9,2.9,0,0,1-.587-.182.823.823,0,0,1-.326-.269.647.647,0,0,1-.106-.362.706.706,0,0,1,.131-.409.8.8,0,0,1,.382-.291,1.513,1.513,0,0,1,.558-.1,1.57,1.57,0,0,1,.6.1.827.827,0,0,1,.548.761l-.386.028a.581.581,0,0,0-.212-.415.845.845,0,0,0-.529-.14.885.885,0,0,0-.533.128.375.375,0,0,0-.166.306.323.323,0,0,0,.118.257,1.658,1.658,0,0,0,.606.208,4.14,4.14,0,0,1,.675.183.917.917,0,0,1,.392.3.691.691,0,0,1,.126.411.767.767,0,0,1-.139.437.913.913,0,0,1-.4.318,1.456,1.456,0,0,1-.585.113,1.835,1.835,0,0,1-.693-.115.968.968,0,0,1-.438-.344A.955.955,0,0,1,406.439,484.355Z" transform="translate(-366.342 -482.339)"/><path class="b" d="M426.782,485.452V482.9h-1v-.342h2.412v.342h-1.007v2.556Z" transform="translate(-381.239 -482.505)"/><path class="b" d="M445.508,485.452v-2.9h2.2v.342h-1.8v.888h1.683v.34h-1.683v.986h1.868v.342Z" transform="translate(-396.435 -482.505)"/><path class="b" d="M465.155,485.452v-2.9h.606l.72,2.051q.1.287.145.429.052-.158.162-.465l.728-2.016h.542v2.9h-.388v-2.425l-.884,2.425h-.363l-.88-2.466v2.466Z" transform="translate(-411.568 -482.505)"/><path class="b" d="M488.054,485.452v-2.9h2.2v.342h-1.8v.888h1.683v.34h-1.683v.986h1.868v.342Z" transform="translate(-429.205 -482.505)"/></g><g transform="translate(0.12)"><path class="b" d="M232.442,462.865v-2.9h1.141a1.454,1.454,0,0,1,.558.089.694.694,0,0,1,.33.271.68.68,0,0,1,.12.381.636.636,0,0,1-.106.35.746.746,0,0,1-.32.265.794.794,0,0,1,.423.263.678.678,0,0,1,.149.439.81.81,0,0,1-.091.379.731.731,0,0,1-.222.269.964.964,0,0,1-.334.145,2.146,2.146,0,0,1-.49.047Zm.4-1.68h.658a1.533,1.533,0,0,0,.384-.034.425.425,0,0,0,.23-.144.4.4,0,0,0,.079-.253.447.447,0,0,0-.073-.253.362.362,0,0,0-.208-.15,1.778,1.778,0,0,0-.463-.042h-.608Zm0,1.338h.758a1.828,1.828,0,0,0,.274-.014.672.672,0,0,0,.232-.079.431.431,0,0,0,.154-.16.491.491,0,0,0,.06-.245.461.461,0,0,0-.087-.281.452.452,0,0,0-.243-.168,1.522,1.522,0,0,0-.444-.049h-.7Z" transform="translate(-232.442 -459.385)"/><path class="b" d="M250.8,462.865l1.168-2.9h.434l1.245,2.9h-.459l-.355-.877H251.56l-.334.877Zm.878-1.19h1.031l-.318-.8q-.145-.365-.216-.6a3.54,3.54,0,0,1-.164.553Z" transform="translate(-246.581 -459.385)"/><path class="b" d="M271.972,462.865v-2.9h.413l1.6,2.275v-2.275h.386v2.9h-.413l-1.6-2.277v2.277Z" transform="translate(-262.89 -459.385)"/><path class="b" d="M292.748,462.865v-2.9H293.8a2.674,2.674,0,0,1,.542.041,1.052,1.052,0,0,1,.446.208,1.172,1.172,0,0,1,.359.5,1.845,1.845,0,0,1,.12.688,1.943,1.943,0,0,1-.081.585,1.409,1.409,0,0,1-.208.423,1.086,1.086,0,0,1-.278.263,1.152,1.152,0,0,1-.363.145,2.149,2.149,0,0,1-.488.049Zm.4-.342h.65a1.629,1.629,0,0,0,.471-.054.686.686,0,0,0,.274-.15.9.9,0,0,0,.222-.366,1.7,1.7,0,0,0,.081-.559,1.282,1.282,0,0,0-.158-.7.772.772,0,0,0-.38-.328,1.638,1.638,0,0,0-.521-.06h-.639Z" transform="translate(-278.892 -459.385)"/><path class="b" d="M312.91,461.769l.38-.031a.79.79,0,0,0,.125.358.7.7,0,0,0,.307.225,1.222,1.222,0,0,0,.467.085,1.176,1.176,0,0,0,.407-.065.56.56,0,0,0,.261-.178.4.4,0,0,0,.087-.249.361.361,0,0,0-.083-.237.609.609,0,0,0-.274-.172,5.464,5.464,0,0,0-.542-.14,2.914,2.914,0,0,1-.587-.182.825.825,0,0,1-.326-.269.646.646,0,0,1-.106-.362.707.707,0,0,1,.131-.409.8.8,0,0,1,.382-.29,1.516,1.516,0,0,1,.558-.1,1.571,1.571,0,0,1,.6.1.828.828,0,0,1,.548.761l-.386.027a.582.582,0,0,0-.212-.415.845.845,0,0,0-.529-.14.882.882,0,0,0-.533.128.375.375,0,0,0-.166.306.322.322,0,0,0,.118.257,1.664,1.664,0,0,0,.606.208,4.1,4.1,0,0,1,.674.184.909.909,0,0,1,.392.3.691.691,0,0,1,.127.411.767.767,0,0,1-.139.437.915.915,0,0,1-.4.318,1.455,1.455,0,0,1-.585.113,1.84,1.84,0,0,1-.693-.115.968.968,0,0,1-.438-.344A.954.954,0,0,1,312.91,461.769Z" transform="translate(-294.422 -459.219)"/><path class="b" d="M331.789,460.911l1.168-2.9h.434l1.245,2.9h-.459l-.355-.877H332.55l-.334.877Zm.878-1.19H333.7l-.318-.8q-.145-.365-.216-.6a3.537,3.537,0,0,1-.164.553Zm-.085-1.886v-.4h.39v.4Zm.774,0v-.4h.39v.4Z" transform="translate(-308.964 -457.431)"/><path class="b" d="M354.063,461.563v-.34l1.289,0V462.3a2.325,2.325,0,0,1-.612.34,1.909,1.909,0,0,1-.647.113,1.811,1.811,0,0,1-.815-.182,1.244,1.244,0,0,1-.552-.53,1.6,1.6,0,0,1-.187-.773,1.728,1.728,0,0,1,.185-.789,1.207,1.207,0,0,1,.536-.545,1.742,1.742,0,0,1,.8-.178,1.642,1.642,0,0,1,.6.1.982.982,0,0,1,.419.283,1.238,1.238,0,0,1,.23.474l-.363.095a1.051,1.051,0,0,0-.17-.348.688.688,0,0,0-.29-.2,1.1,1.1,0,0,0-.419-.077,1.275,1.275,0,0,0-.477.081.892.892,0,0,0-.326.209,1,1,0,0,0-.191.287,1.453,1.453,0,0,0-.116.583,1.37,1.37,0,0,0,.139.648.882.882,0,0,0,.409.387,1.314,1.314,0,0,0,.569.127,1.424,1.424,0,0,0,.51-.095,1.347,1.347,0,0,0,.378-.206v-.539Z" transform="translate(-324.945 -459.219)"/><path class="b" d="M374.8,462.865v-2.9H377v.342h-1.8v.887h1.683v.34h-1.683v.986h1.868v.342Z" transform="translate(-342.096 -459.385)"/><path class="b" d="M394.515,462.865V460.31h-1v-.342h2.411v.342h-1.007v2.556Z" transform="translate(-356.506 -459.385)"/><path class="b" d="M413.24,462.865v-2.9h2.2v.342h-1.8v.887h1.683v.34h-1.683v.986h1.868v.342Z" transform="translate(-371.701 -459.385)"/><path class="b" d="M434.723,461.684l.4.1a1.222,1.222,0,0,1-1.26.968,1.514,1.514,0,0,1-.8-.19,1.22,1.22,0,0,1-.469-.553,1.9,1.9,0,0,1-.16-.777,1.638,1.638,0,0,1,.181-.788,1.211,1.211,0,0,1,.517-.512,1.571,1.571,0,0,1,.739-.176,1.289,1.289,0,0,1,.768.221,1.148,1.148,0,0,1,.434.623l-.4.089a.89.89,0,0,0-.307-.46.846.846,0,0,0-.506-.145,1.023,1.023,0,0,0-.587.16.851.851,0,0,0-.33.431,1.647,1.647,0,0,0-.1.555,1.714,1.714,0,0,0,.112.646.819.819,0,0,0,.353.411,1.026,1.026,0,0,0,.517.136.894.894,0,0,0,.573-.186A.942.942,0,0,0,434.723,461.684Z" transform="translate(-386.487 -459.219)"/><path class="b" d="M453.754,462.865v-2.9h.4v1.19h1.581v-1.19h.4v2.9h-.4V461.5h-1.581v1.366Z" transform="translate(-402.907 -459.385)"/><path class="b" d="M474.44,462.865v-2.9h.413l1.6,2.275v-2.275h.386v2.9h-.413l-1.6-2.277v2.277Z" transform="translate(-418.84 -459.385)"/><rect class="c" width="0.403" height="2.897" transform="translate(60.442 0.583)"/><path class="b" d="M507.683,462.865v-2.9h.4V461.4l1.511-1.437h.546l-1.276,1.174,1.333,1.724h-.531l-1.083-1.467-.5.463v1Z" transform="translate(-444.445 -459.385)"/></g></g><path class="d" d="M100.153,372.334c-19.83-2.285-33.075-8.629-25.513-17.085,10.518-11.761,49.426-16.441,76.906-12.232-29.989-4.776-73.052-.454-83.6,11.792-7.015,8.141,6.058,14.329,25.762,17,1.1.149,2.415.273,3.554.4,1.1.122,1.27.125,2.247.2.406.032,2.613.127,2.585.127Z" transform="translate(0 0)"/><g transform="translate(73.554 341.823)"><g transform="translate(0 0)"><path class="c" d="M125.25,373.879c-16.159-2.425-25.878-8.294-18.71-15.947,10.332-11.033,45.02-15.91,69.788-12.346a153.6,153.6,0,0,0-44.444.491l-.059.009-.182.025c-.262.033-.907.095-1.478.168.03.026.06.06-.247.125-.065.012-.11.017-.217.031-.276.034-.959.082-1.56.158.034.044.07.1-.213.182l-.159.031-.124.014c-.292.031-1.017.057-1.653.127.042.068.088.16-.246.26a2.42,2.42,0,0,1-.251.037c-.308.033-1.078.046-1.749.122.051.092.108.216-.284.354a2.279,2.279,0,0,1-.237.035c-.325.036-1.144.035-1.852.117.062.118.133.277-.275.444a1.9,1.9,0,0,1-.267.043c-.343.038-1.216.024-1.963.112.075.146.164.343-.255.54a1.731,1.731,0,0,1-.309.059c-.362.046-1.289.034-2.076.139.09.169.2.4-.183.6a.588.588,0,0,1-.065.029,1.85,1.85,0,0,1-.28.057c-.382.056-1.372.046-2.2.174.112.2.248.466-.138.714a1.364,1.364,0,0,1-.125.057,1.7,1.7,0,0,1-.3.071c-.4.069-1.462.069-2.335.227.14.23.311.538-.077.83a.494.494,0,0,1-.068.04,1.246,1.246,0,0,1-.306.1c-.422.095-1.572.132-2.486.347.179.257.4.6-.01.979a1.355,1.355,0,0,1-.392.168c-.437.134-1.648.252-2.6.552.232.278.526.652.175,1.068a.463.463,0,0,1-.091.076,2.6,2.6,0,0,1-.235.122c-.437.2-1.688.5-2.632.954.292.261.666.615.342,1.149,0,0-.062.068-.1.1s-.087.067-.164.129c-.4.318-1.661.919-2.525,1.618.364.186.82.434.844.883a.91.91,0,0,1-.03.221q-.065.171-.119.341a29.183,29.183,0,0,0-1.35,2.748c.474-.043,1.083-.084,1.4.355.033.091.069.183.114.292.145.458.255,1.753.582,2.744.315-.271.735-.613,1.229-.315a1.446,1.446,0,0,1,.214.233c.267.337.778,1.357,1.365,2.083.172-.3.41-.687.925-.524a1.454,1.454,0,0,1,.238.177c.291.25.92,1.029,1.559,1.568.091-.254.223-.584.675-.491a.481.481,0,0,1,.071.024l.07.031.136.087c.285.191.93.794,1.554,1.206.049-.2.125-.47.548-.4l.114.041.111.057c.271.145.9.605,1.491.919.022-.15.059-.344.383-.319l.028.014a1.613,1.613,0,0,1,.245.092c.252.112.847.46,1.4.7.006-.115.024-.264.4-.214l.159.042c.252.1.771.344,1.246.519,0-.074,0-.167.234-.148l.143.034.079.024c.212.064.724.253,1.186.392-.01-.049-.02-.114.24-.076l.278.059c.216.056.647.17,1.035.268-.015-.022-.027-.052.207-.013h0c1.051.21,2.009.375,2.988.524,1.048.159,1.961.267,3.194.421,0,0,1.288.141,2.746.221Z" transform="translate(-98.789 -344.199)"/></g></g></g></svg>