<svg xmlns="http://www.w3.org/2000/svg" width="32" height="32" viewBox="0 0 32 32" fill="#ffffff"><path d="M17.907,32H14.092a1.65,1.65,0,0,1-1.648-1.648V27.359a1.118,1.118,0,0,0-.709-1.062,1.183,1.183,0,0,0-.454-.093,1.116,1.116,0,0,0-.8.341L8.367,28.663a1.686,1.686,0,0,1-2.331,0l-2.7-2.7a1.65,1.65,0,0,1,0-2.331l2.117-2.116a1.149,1.149,0,0,0-.814-1.961H1.648A1.65,1.65,0,0,1,0,17.907V14.092a1.65,1.65,0,0,1,1.648-1.648H4.641a1.149,1.149,0,0,0,.814-1.961L3.337,8.367a1.65,1.65,0,0,1,0-2.331l2.7-2.7a1.688,1.688,0,0,1,2.331,0l2.116,2.116a1.131,1.131,0,0,0,.8.343,1.169,1.169,0,0,0,.452-.093,1.118,1.118,0,0,0,.709-1.062V1.648A1.65,1.65,0,0,1,14.092,0h3.816a1.65,1.65,0,0,1,1.648,1.648V4.641A1.118,1.118,0,0,0,20.264,5.7a1.172,1.172,0,0,0,.453.093,1.131,1.131,0,0,0,.8-.343l2.116-2.116a1.688,1.688,0,0,1,2.331,0l2.7,2.7a1.65,1.65,0,0,1,0,2.331l-2.117,2.116a1.149,1.149,0,0,0,.814,1.961h2.993c.37,0,.837.109,1.165.96a14.087,14.087,0,0,1,.483,4.5,1.65,1.65,0,0,1-1.648,1.648H27.359a1.149,1.149,0,0,0-.814,1.961l2.116,2.116a1.647,1.647,0,0,1,0,2.331l-2.7,2.7a1.688,1.688,0,0,1-2.331,0l-2.116-2.117a1.116,1.116,0,0,0-.8-.342,1.177,1.177,0,0,0-.454.093,1.118,1.118,0,0,0-.71,1.062v2.993A1.65,1.65,0,0,1,17.907,32ZM16,11.054A4.946,4.946,0,1,0,20.946,16,4.952,4.952,0,0,0,16,11.054Z"/></svg>